# AST/ASF file generated using VICON BodyLanguage
# -----------------------------------------------
:version 1.10
:name VICON
:units
  mass 1.0
  length 0.45
  angle deg
:documentation
   .ast/.asf automatically generated from VICON data using
   VICON BodyBuilder and BodyLanguage model FoxedUp or BRILLIANT.MOD
:root
   order TX TY TZ RX RY RZ
   axis XYZ
   position 0 0 0  
   orientation 0 0 0 
:bonedata
  begin
     id 1 
     name lhipjoint
     direction 0.62366 -0.717238 0.310833 
     length 2.53602 
     axis 0 0 0  XYZ
  end
  begin
     id 2 
     name lfemur
     direction 0.34202 -0.939693 0  
     length 7.40817  
     axis 0 0 20  XYZ
    dof rx ry rz
    limits (-160.0 20.0)
           (-70.0 70.0)
           (-60.0 70.0)
  end
  begin
     id 3 
     name ltibia
     direction 0.34202 -0.939693 0   
     length 7.7045   
     axis 0 0 20   XYZ
    dof rx
    limits (-10.0 170.0)
  end
  begin
     id 4 
     name lfoot
     direction 0.0673888 -0.185149 0.980397   
     length 2.09456   
     axis -90 7.62852e-016 20   XYZ
    dof rx rz
    limits (-45.0 90.0)
           (-70.0 20.0)
  end
  begin
     id 5 
     name ltoes
     direction 1.53575e-011 -4.21994e-011 1   
     length 1.05543   
     axis -90 7.62852e-016 20   XYZ
    dof rx
    limits (-90.0 20.0)
  end
  begin
     id 6 
     name rhipjoint
     direction -0.489018 -0.800347 0.346851   
     length 2.27268  
     axis 0 0 0  XYZ 
  end
  begin
     id 7 
     name rfemur
     direction -0.34202 -0.939693 0   
     length 7.55487   
     axis 0 0 -20   XYZ
    dof rx ry rz
    limits (-160.0 20.0)
           (-70.0 70.0)
           (-70.0 60.0)
  end
  begin
     id 8 
     name rtibia
     direction -0.34202 -0.939693 0   
     length 7.78969   
     axis 0 0 -20   XYZ
    dof rx
    limits (-10.0 170.0)
 end
 begin
     id 9 
     name rfoot
     direction -0.0859318 -0.236096 0.967923   
     length 2.19143  
     axis -90 -7.62852e-016 -20   XYZ
    dof rx rz
    limits (-45.0 90.0)
           (-20.0 70.0)
  end
  begin
     id 10 
     name rtoes
     direction -1.53538e-011 -4.21989e-011 1   
     length 1.09845   
     axis -90 -7.62852e-016 -20   XYZ
    dof rx
    limits (-90.0 20.0)
  end
  begin
     id 11 
     name lowerback
     direction -0.00762546 0.998978 -0.0445553   
     length 1.98161   
     axis 0 0 0   XYZ
    dof rx ry rz
    limits (-20.0 45.0)
           (-30.0 30.0)
           (-30.0 30.0)
  end
  begin
     id 12 
     name upperback
     direction 0.0422361 0.998867 -0.0219156   
     length 1.97558   
     axis 0 0 0   XYZ
    dof rx ry rz
    limits (-20.0 45.0)
           (-30.0 30.0)
           (-30.0 30.0)
  end
  begin
     id 13 
     name thorax
     direction 0.0442465 0.999021 7.47603e-005   
     length 1.97799   
     axis 0 0 0   XYZ
    dof rx ry rz
    limits (-20.0 45.0)
           (-30.0 30.0)
           (-30.0 30.0)
  end
  begin
     id 14 
     name lowerneck
     direction 0.00312169 0.984641 0.174564   
     length 1.78995   
     axis 0 0 0   XYZ
    dof rx ry rz
    limits (-20.0 45.0)
           (-30.0 30.0)
           (-30.0 30.0)
  end
  begin
     id 15 
     name upperneck
     direction -0.0383028 0.985255 -0.166749   
     length 1.83053   
     axis 0 0 0   XYZ
    dof rx ry rz
    limits (-20.0 45.0)
           (-30.0 30.0)
           (-30.0 30.0)
  end
  begin
     id 16
     name head
     direction -0.0129546 0.997059 -0.0755386  
     length 1.84088  
     axis 0 0 0   XYZ
    dof rx ry rz
    limits (-20.0 45.0)
           (-30.0 30.0)
           (-30.0 30.0)
  end
  begin
     id 17 
     name lclavicle
     direction 0.912857 0.370519 -0.171488  
     length 3.51279  
     axis 0 0 0   XYZ
    dof ry rz
    limits (-20.0 10.0)
           (0.0 20.0)
  end
  begin
     id 18 
     name lhumerus
     direction 1 -4.48962e-011 3.64361e-027   
     length 4.95663   
     axis 180 -30 -90   XYZ
    dof rx ry rz
    limits (-60.0 90.0)
           (-90.0 90.0)
           (-90.0 90.0)
  end
  begin
     id 19
     name lradius
     direction 1 -4.48974e-011 5.97202e-027   
     length 3.38177   
     axis 180 -30 -90   XYZ
    dof rx
    limits (-10.0 170.0)
  end
  begin
     id 20
     name lwrist
     direction 1 -4.4896e-011 9.83288e-027   
     length 1.69088   
     axis -9.31221e-015 90 90   XYZ
    dof ry
    limits (-180.0 0.0)
 end
  begin
     id 21 
     name lhand
     direction 1 -4.4902e-011 1.96551e-026   
     length 0.662909   
     axis -1.25475e-014 90 90   XYZ
    dof rx rz
    limits (-90.0 90.0)
           (-45.0 45.0)
  end
  begin
     id 22 
     name lfingers
     direction 1 -4.48971e-011 3.93277e-026   
     length 0.534454   
     axis -2.50945e-014 90 90   XYZ
    dof rx
    limits (0.0 90.0)
  end
  begin
     id 23
     name lthumb
     direction 0.707107 -6.34933e-011 0.707107   
     length 0.767373   
     axis -90 45 -4.80359e-014   XYZ
    dof rx rz
    limits (-45.0 45.0)
           (-45.0 45.0)
  end
  begin
     id 24 
     name rclavicle
     direction -0.900919 0.395364 -0.178976   
     length 3.40627  
     axis 0 0 0   XYZ 
    dof ry rz
    limits (-10.0 20.0)
           (-20.0 0.0)
  end
  begin
     id 25 
     name rhumerus
     direction -1 -4.48969e-011 1.03875e-027  
     length 5.08365   
     axis 180 30 90   XYZ
    dof rx ry rz
    limits (-90.0 60.0)
           (-90.0 90.0)
           (-90.0 90.0)
  end
  begin
     id 26 
     name rradius
     direction -1 -4.48951e-011 5.02733e-027   
     length 3.35984   
     axis 180 30 90   XYZ
    dof rx
    limits (-10.0 170.0)
  end
  begin
     id 27 
     name rwrist
     direction -1 -4.49011e-011 9.82828e-027   
     length 1.67992   
     axis -9.31221e-015 -90 -90   XYZ
    dof ry
    limits (-180.0 0.0)
  end
  begin
     id 28
     name rhand
     direction -1 -4.48894e-011 1.96774e-026   
     length 0.820764   
     axis -1.25475e-014 -90 -90   XYZ
    dof rx rz
    limits (-90.0 90.0)
           (-45.0 45.0)
  end
  begin
     id 29
     name rfingers
     direction -1 -4.49095e-011 3.92833e-026   
     length 0.661721   
     axis -2.50945e-014 -90 -90   XYZ
    dof rx
    limits (0.0 90.0)
  end
  begin
     id 30
     name rthumb
     direction -0.707107 -6.34881e-011 0.707107   
     length 0.950103   
     axis -90 -45 4.80359e-014   XYZ
    dof rx rz
    limits (-45.0 45.0)
           (-45.0 45.0)
  end
:hierarchy
  begin
    root lhipjoint rhipjoint lowerback
    lhipjoint lfemur
    lfemur ltibia
    ltibia lfoot
    lfoot ltoes
    rhipjoint rfemur
    rfemur rtibia
    rtibia rfoot
    rfoot rtoes
    lowerback upperback
    upperback thorax
    thorax lowerneck lclavicle rclavicle
    lowerneck upperneck
    upperneck head
    lclavicle lhumerus
    lhumerus lradius
    lradius lwrist
    lwrist lhand lthumb
    lhand lfingers
    rclavicle rhumerus
    rhumerus rradius
    rradius rwrist
    rwrist rhand rthumb
    rhand rfingers
  end

#!OML:ASF I:\golf\golf\golf 2\Subject 1\2002-09-07\Subject1.ASF
:FULLY-SPECIFIED
:DEGREES
47
root -5.80365 17.8662 1.69722 -73.8069 86.1891 -91.3114
lowerback 4.43594 1.63432 -1.23808
upperback 3.21145 2.27517 5.07959
thorax 0.570732 1.13819 5.86972
lowerneck -17.1248 -1.69629 1.84095
upperneck 41.1184 1.39803 -5.99794
head 18.4074 0.606934 -2.69905
rclavicle 4.37326e-015 -2.54444e-014
rhumerus -4.44465 -2.95348 -101.159
rradius 20.5126
rwrist -32.3706
rhand -14.024 -6.16848
rfingers 7.12502
rthumb 12.1059 -35.7983
lclavicle 4.37326e-015 -2.54444e-014
lhumerus -10.8842 -43.5064 110.992
lradius 27.9209
lwrist 45.7858
lhand -12.6792 68.0618
lfingers 7.12502
lthumb -166.598 82.3893
rfemur -29.5088 0.256008 12.8047
rtibia 28.6776
rfoot -11.5529 -9.18286
rtoes 23.8719
lfemur -31.2092 5.28143 -9.36273
ltibia 30.8682
lfoot -11.7052 0.624359
ltoes -22.9847
48
root -5.80305 17.8654 1.69693 -73.5827 86.2196 -91.0853
lowerback 4.45258 1.61629 -1.33963
upperback 3.1986 2.24856 5.10885
thorax 0.546573 1.12386 5.95931
lowerneck -17.1015 -1.68124 1.86039
upperneck 41.127 1.45839 -6.08887
head 18.4125 0.622945 -2.73401
rclavicle 7.15625e-015 2.94201e-014
rhumerus -4.44527 -3.03665 -101.142
rradius 20.4521
rwrist -32.2127
rhand -14.0097 -6.15587
rfingers 7.12502
rthumb 12.1197 -35.7848
lclavicle 7.15625e-015 2.94201e-014
lhumerus -10.905 -43.37 111.051
lradius 27.9345
lwrist 45.767
lhand -12.7649 68.3356
lfingers 7.12502
lthumb -166.68 82.1101
rfemur -29.5154 0.250687 12.7581
rtibia 28.6886
rfoot -11.636 -9.13429
rtoes 24.5255
lfemur -31.3151 5.42871 -9.49084
ltibia 30.8878
lfoot -11.5591 0.658803
ltoes -23.6834
49
root -5.80295 17.8664 1.69567 -73.1242 86.26 -90.6167
lowerback 4.47945 1.63644 -1.37269
upperback 3.18303 2.27366 5.08012
thorax 0.512505 1.13649 5.94543
lowerneck -17.0842 -1.6998 1.87686
upperneck 41.13 1.42155 -6.08225
head 18.4064 0.612503 -2.7408
rclavicle -2.66371e-014 -4.53229e-014
rhumerus -4.44696 -3.10185 -101.128
rradius 20.4304
rwrist -32.2174
rhand -13.9128 -6.11484
rfingers 7.12502
rthumb 12.2132 -35.7383
lclavicle -2.66371e-014 -4.53229e-014
lhumerus -10.9427 -43.2479 111.112
lradius 27.8725
lwrist 45.6476
lhand -12.773 68.4704
lfingers 7.12502
lthumb -166.688 81.9747
rfemur -29.5197 0.211591 12.719
rtibia 28.7073
rfoot -11.6774 -9.08337
rtoes 24.8151
lfemur -31.1591 5.35275 -9.48301
ltibia 30.8763
lfoot -11.7283 0.628125
ltoes -23.5262
50
root -5.80274 17.866 1.69415 -73.1027 86.2407 -90.6048
lowerback 4.46838 1.65301 -1.29224
upperback 3.17497 2.29749 5.04271
thorax 0.511839 1.14956 5.85876
lowerneck -17.0802 -1.71471 1.88878
upperneck 41.1168 1.36692 -6.02943
head 18.392 0.599124 -2.72789
rclavicle 1.51076e-014 4.45278e-014
rhumerus -4.42965 -3.1891 -101.145
rradius 20.4252
rwrist -32.2339
rhand -13.9369 -6.11148
rfingers 7.12502
rthumb 12.19 -35.7363
lclavicle 1.51076e-014 4.45278e-014
lhumerus -10.953 -43.1689 111.131
lradius 27.8019
lwrist 45.5763
lhand -12.7592 68.3833
lfingers 7.12502
lthumb -166.675 82.0627
rfemur -29.5061 0.205777 12.7401
rtibia 28.6634
rfoot -11.6881 -9.08833
rtoes 24.7614
lfemur -31.0819 5.31572 -9.42247
ltibia 30.9476
lfoot -11.9457 0.61154
ltoes -23.5636
51
root -5.8021 17.8655 1.69345 -73.1318 86.2186 -90.6524
lowerback 4.43358 1.62772 -1.26776
upperback 3.17534 2.26411 5.04534
thorax 0.536123 1.13267 5.85022
lowerneck -17.0583 -1.6947 1.88433
upperneck 41.1081 1.40757 -6.04792
head 18.3843 0.611921 -2.72725
rclavicle -2.34566e-014 -3.02153e-014
rhumerus -4.43962 -3.18843 -101.185
rradius 20.4191
rwrist -32.1782
rhand -14.0755 -6.14868
rfingers 7.12502
rthumb 12.0563 -35.7814
lclavicle -2.34566e-014 -3.02153e-014
lhumerus -10.9217 -43.1312 111.102
lradius 27.7787
lwrist 45.5484
lhand -12.7371 68.3843
lfingers 7.12502
lthumb -166.653 82.0631
rfemur -29.4267 0.21463 12.7602
rtibia 28.4645
rfoot -11.6126 -9.15233
rtoes 24.1607
lfemur -31.3738 5.36315 -9.44747
ltibia 31.2738
lfoot -11.9336 0.716627
ltoes -23.6363
52
root -5.80099 17.8735 1.69346 -72.9746 86.2179 -90.4739
lowerback 4.44574 1.60971 -1.30598
upperback 3.1857 2.23929 5.06317
thorax 0.540873 1.11956 5.89202
lowerneck -17.0433 -1.67918 1.8696
upperneck 41.1073 1.45118 -6.07666
head 18.3838 0.623241 -2.72945
rclavicle 7.15625e-015 -2.94201e-014
rhumerus -4.48487 -3.03797 -101.188
rradius 20.4686
rwrist -32.2558
rhand -14.1271 -6.12941
rfingers 7.12502
rthumb 12.0066 -35.765
lclavicle 7.15625e-015 -2.94201e-014
lhumerus -10.908 -43.1536 111.089
lradius 27.8082
lwrist 45.5601
lhand -12.7489 68.3753
lfingers 7.12502
lthumb -166.665 82.0714
rfemur -29.3487 0.277291 12.7498
rtibia 28.3818
rfoot -11.4674 -9.25484
rtoes 22.8641
lfemur -31.4776 5.64403 -9.64622
ltibia 31.3662
lfoot -11.8951 0.927611
ltoes -25.883
53
root -5.7996 17.8993 1.69244 -73.1573 86.2343 -90.6235
lowerback 4.48643 1.62751 -1.31385
upperback 3.19613 2.26302 5.05208
thorax 0.526421 1.13158 5.88266
lowerneck -17.0803 -1.691 1.88488
upperneck 41.1063 1.42306 -6.07305
head 18.3909 0.614221 -2.73669
rclavicle -1.23246e-014 -1.59028e-014
rhumerus -4.46145 -3.07196 -101.163
rradius 20.4792
rwrist -32.2683
rhand -14.1385 -6.0974
rfingers 7.12502
rthumb 11.9956 -35.7337
lclavicle -1.23246e-014 -1.59028e-014
lhumerus -10.9512 -43.2636 111.112
lradius 27.8773
lwrist 45.6529
lhand -12.7742 68.1977
lfingers 7.12502
lthumb -166.689 82.2475
rfemur -29.25 0.303565 12.7387
rtibia 28.3224
rfoot -11.4132 -9.3129
rtoes 22.4109
lfemur -31.361 6.37307 -10.1169
ltibia 31.4122
lfoot -12.2312 1.04749
ltoes -30.4546
54
root -5.80014 17.8769 1.69097 -73.2787 86.2669 -90.7276
lowerback 4.51562 1.64482 -1.31006
upperback 3.19932 2.28566 5.02119
thorax 0.512154 1.14311 5.84589
lowerneck -17.1121 -1.70724 1.91152
upperneck 41.1151 1.38697 -6.07188
head 18.402 0.604046 -2.74904
rclavicle 4.09496e-014 4.37326e-014
rhumerus -4.36078 -3.51117 -101.19
rradius 20.3361
rwrist -31.905
rhand -14.1436 -5.99991
rfingers 7.12502
rthumb 11.9907 -35.6365
lclavicle 4.09496e-014 4.37326e-014
lhumerus -10.9857 -43.3326 111.114
lradius 27.9349
lwrist 45.7583
lhand -12.732 68.2058
lfingers 7.12502
lthumb -166.648 82.2419
rfemur -29.2673 0.232207 12.7027
rtibia 28.353
rfoot -11.4673 -9.29088
rtoes 22.5959
lfemur -31.3754 5.61626 -9.70265
ltibia 31.2746
lfoot -11.902 0.859108
ltoes -25.292
55
root -5.80041 17.8677 1.69006 -72.9395 86.3128 -90.3828
lowerback 4.52256 1.6333 -1.35722
upperback 3.19969 2.2677 5.00126
thorax 0.509745 1.13319 5.8525
lowerneck -17.1013 -1.69985 1.93135
upperneck 41.1165 1.39698 -6.08551
head 18.4008 0.609309 -2.75717
rclavicle -3.97569e-016 2.62396e-014
rhumerus -4.32321 -3.72484 -101.225
rradius 20.231
rwrist -31.6558
rhand -14.1322 -5.92863
rfingers 7.12502
rthumb 12.0016 -35.5645
lclavicle -3.97569e-016 2.62396e-014
lhumerus -10.9568 -43.2149 111.093
lradius 27.9166
lwrist 45.7207
lhand -12.6797 68.3581
lfingers 7.12502
lthumb -166.598 82.0929
rfemur -29.2943 0.171121 12.6598
rtibia 28.3862
rfoot -11.603 -9.16912
rtoes 23.8794
lfemur -31.3416 5.34914 -9.59655
ltibia 31.1573
lfoot -11.7643 0.763281
ltoes -23.1272
56
root -5.79965 17.8692 1.6889 -72.8078 86.436 -90.2424
lowerback 4.52571 1.618 -1.45834
upperback 3.19639 2.24154 4.95504
thorax 0.505682 1.11813 5.86267
lowerneck -17.098 -1.69322 1.94315
upperneck 41.1327 1.39733 -6.0678
head 18.4093 0.614167 -2.75147
rclavicle -4.37326e-015 2.14687e-014
rhumerus -4.34759 -3.63233 -101.226
rradius 20.2518
rwrist -31.7297
rhand -14.1199 -5.96235
rfingers 7.12502
rthumb 12.0134 -35.5976
lclavicle -4.37326e-015 2.14687e-014
lhumerus -10.9708 -43.2018 111.105
lradius 27.9205
lwrist 45.7282
lhand -12.794 68.499
lfingers 7.12502
lthumb -166.708 81.9449
rfemur -29.3614 0.102287 12.5301
rtibia 28.5548
rfoot -11.7328 -9.04621
rtoes 24.6802
lfemur -31.1404 5.23154 -9.67182
ltibia 30.8218
lfoot -11.6114 0.586969
ltoes -22.1266
57
root -5.79846 17.8741 1.68751 -72.8575 86.5087 -90.2746
lowerback 4.5455 1.62411 -1.50822
upperback 3.19455 2.24702 4.92797
thorax 0.491375 1.12021 5.86172
lowerneck -17.127 -1.70082 1.94185
upperneck 41.1544 1.38385 -6.05666
head 18.4291 0.610539 -2.74997
rclavicle -5.1684e-015 -9.54166e-015
rhumerus -4.34777 -3.63352 -101.204
rradius 20.2665
rwrist -31.7493
rhand -14.1386 -5.9945
rfingers 7.12502
rthumb 11.9955 -35.6308
lclavicle -5.1684e-015 -9.54166e-015
lhumerus -11.023 -43.3221 111.148
lradius 27.9787
lwrist 45.8534
lhand -13.0043 68.6637
lfingers 7.12502
lthumb -166.911 81.767
rfemur -29.3606 0.0955177 12.4453
rtibia 28.6105
rfoot -11.6832 -9.08195
rtoes 24.3328
lfemur -31.0305 5.13457 -9.70275
ltibia 30.7078
lfoot -11.561 0.411264
ltoes -20.479
58
root -5.7976 17.8726 1.68814 -72.4159 86.4864 -89.8289
lowerback 4.55801 1.65203 -1.50202
upperback 3.19577 2.28449 4.92149
thorax 0.48187 1.13929 5.84911
lowerneck -17.1513 -1.71319 1.96658
upperneck 41.1423 1.35797 -6.0718
head 18.4266 0.601164 -2.7668
rclavicle 2.26615e-014 3.33958e-014
rhumerus -4.31946 -3.70607 -101.18
rradius 20.2446
rwrist -31.6239
rhand -14.1072 -6.03164
rfingers 7.12502
rthumb 12.0257 -35.6661
lclavicle 2.26615e-014 3.33958e-014
lhumerus -11.0586 -43.4515 111.166
lradius 28.0049
lwrist 45.9448
lhand -13.0907 68.5875
lfingers 7.12502
lthumb -166.994 81.8379
rfemur -29.359 0.111759 12.4712
rtibia 28.6016
rfoot -11.6526 -9.10495
rtoes 24.3484
lfemur -31.0596 5.31164 -9.78374
ltibia 30.6801
lfoot -11.5126 0.551737
ltoes -21.9294
